<?xml version="1.0" encoding="UTF-8"?>
<svg version="1.1" xmlns="http://www.w3.org/2000/svg" width="512" height="512">
<path d="M0 0 C0.59474121 0.53302734 1.18948242 1.06605469 1.80224609 1.61523438 C8.60520642 7.74697878 15.21295275 13.88301021 21 21 C21.97189786 22.14907938 22.94464191 23.29744328 23.91796875 24.4453125 C31.78363621 33.81199878 38.71378384 43.51006191 45 54 C45.68425049 55.13598633 45.68425049 55.13598633 46.38232422 56.29492188 C77.78628082 109.10017477 86.22325434 174.46349301 71.46972656 233.89306641 C59.66673489 279.2380144 35.50347847 322.79489537 -1 353 C-1.87011719 353.78117187 -2.74023438 354.56234375 -3.63671875 355.3671875 C-45.18009026 392.38379243 -101.0118858 411.20482994 -156.1875 411.25 C-157.30724716 411.25101212 -157.30724716 411.25101212 -158.44961548 411.25204468 C-171.81397999 411.23298708 -184.82096605 410.34211973 -198 408 C-198.94311035 407.83371094 -199.8862207 407.66742188 -200.85791016 407.49609375 C-243.12797383 399.7572111 -282.02004834 380.70265156 -314 352 C-314.89211182 351.20045898 -314.89211182 351.20045898 -315.80224609 350.38476562 C-322.60520642 344.25302122 -329.21295275 338.11698979 -335 331 C-335.97189786 329.85092062 -336.94464191 328.70255672 -337.91796875 327.5546875 C-345.78363621 318.18800122 -352.71378384 308.48993809 -359 298 C-359.45616699 297.24267578 -359.91233398 296.48535156 -360.38232422 295.70507812 C-391.7800589 242.9102873 -400.23943575 177.52201427 -385.4675293 118.10253906 C-375.80721992 81.02704871 -358.64817561 47.5767123 -333 19 C-332.20045898 18.10788818 -332.20045898 18.10788818 -331.38476562 17.19775391 C-325.25302122 10.39479358 -319.11698979 3.78704725 -312 -2 C-310.85092062 -2.97189786 -309.70255672 -3.94464191 -308.5546875 -4.91796875 C-299.18714033 -12.78356119 -289.47492945 -19.68991577 -279 -26 C-278.30213379 -26.4237793 -277.60426758 -26.84755859 -276.88525391 -27.28417969 C-251.21898302 -42.69697379 -222.49338155 -52.25258685 -193 -57 C-192.28763184 -57.11714355 -191.57526367 -57.23428711 -190.84130859 -57.35498047 C-122.82254799 -67.94406811 -50.97032428 -45.74689398 0 0 Z M-207.26171875 22.76171875 C-212.97888467 30.12337285 -214.94753474 37.80891301 -214 47 C-211.15180441 57.4147875 -202.88263209 65.34112691 -194 71 C-174.4587032 80.98717247 -151.94584424 82.51674772 -131.125 75.8125 C-119.6835318 71.66299615 -108.34127627 64.87414432 -102.5625 53.75 C-99.2531791 46.56743805 -98.87166209 39.40055043 -101.5625 31.9375 C-107.31662912 18.91499725 -119.24030386 11.99484641 -132 7 C-156.29378749 -1.7892158 -189.40538253 3.29125045 -207.26171875 22.76171875 Z M-74 61 C-81.20002623 67.55123266 -84.34757064 74.89944915 -85.37890625 84.54296875 C-86.02435202 104.30193761 -78.17950109 122.69754991 -66 138 C-65.33484375 138.84046875 -64.6696875 139.6809375 -63.984375 140.546875 C-54.78782558 151.4636423 -43.57951471 158.36524498 -29.34375 160.375 C-20.93488244 160.80076545 -13.08066027 158.03466798 -6.5625 152.75 C0.3088127 146.17377435 3.16654789 137.18216463 3.43164062 127.7980957 C3.48570675 107.16961705 -5.20876171 88.2994108 -19.48193359 73.48583984 C-32.89664966 60.35590064 -56.83155589 46.50220275 -74 61 Z M-302 84 C-314.51425431 99.77411795 -320.97789063 119.89474176 -319 140 C-317.02153674 150.36444955 -313.17746689 159.41253085 -304.3125 165.5 C-297.12739722 169.96742142 -289.2030879 170.19180678 -281.015625 168.31640625 C-263.58990484 162.38476987 -250.04430873 148.21344605 -241.921875 132 C-234.15800661 115.54044041 -230.49279643 97.37970091 -236.73828125 79.8046875 C-240.28399488 71.92288444 -246.2750246 64.92498998 -254.375 61.625 C-274.05630542 58.23167148 -289.80034165 69.55007528 -302 84 Z M-66 211 C-69.06933037 215.10100721 -71.59085705 219.48496286 -74 224 C-74.48082031 224.89203125 -74.96164062 225.7840625 -75.45703125 226.703125 C-82.54449002 241.00651612 -85.64645698 257.35924512 -81.375 272.9375 C-77.80292661 283.0583746 -72.57395478 288.23774022 -63 293 C-53.91556409 296.0281453 -44.4901333 293.79970109 -36 290 C-18.22719831 280.8088529 -6.12402239 263.90765427 0.29296875 245.23828125 C4.39754346 231.2945816 6.38088608 216.94113504 -0.2890625 203.37890625 C-4.56372955 196.60115877 -10.01478747 190.96688556 -17.78125 188.47265625 C-37.05476432 184.36685478 -54.26858818 196.89276629 -66 211 Z M-308.86328125 207.51953125 C-311.89039615 211.03364087 -313.65762356 214.58451018 -315 219 C-315.18820312 219.59554688 -315.37640625 220.19109375 -315.5703125 220.8046875 C-318.95377412 238.09110051 -312.92527798 255.37639639 -304 270 C-293.7219149 284.79752678 -279.22482069 296.50806865 -261.4453125 300.5859375 C-253.51348503 301.9290265 -245.92513859 301.17463753 -239.0546875 296.74609375 C-231.31874654 290.60087658 -227.67998759 282.60177522 -226 273 C-224.12043234 256.51940068 -230.48614466 239.27229554 -240.359375 226.20019531 C-243.35056005 222.55993991 -246.6026451 219.26044656 -250 216 C-250.67804688 215.32582031 -251.35609375 214.65164063 -252.0546875 213.95703125 C-267.91291864 199.05292605 -291.61541205 190.92150327 -308.86328125 207.51953125 Z M-203.8125 288.4375 C-210.39707378 296.15085785 -214.48985376 302.00049314 -214.25390625 312.4765625 C-213.39375902 321.02510263 -208.44072715 328.29371182 -202.3515625 334.13671875 C-185.66184202 347.36096571 -165.60323457 349.61565711 -145 348 C-131.41326129 346.40449307 -116.8862791 340.35927234 -107.58203125 330.08203125 C-101.58198226 322.18567048 -98.97708657 314.9222603 -100 305 C-102.84819559 294.5852125 -111.11736791 286.65887309 -120 281 C-146.35772408 267.52908562 -180.90760716 268.58659287 -203.8125 288.4375 Z " fill="#FF8F00" transform="translate(413,80)"/>
</svg>
