<svg width="300" height="300" viewBox="0 0 300 300" xmlns="http://www.w3.org/2000/svg">
  <!-- 猪头的头部 -->
  <circle cx="150" cy="150" r="120" fill="#FFC107"/>
  <!-- 猪头的鼻子 -->
  <ellipse cx="150" cy="200" rx="50" ry="80" fill="#F44336"/>
  <ellipse cx="150" cy="200" rx="40" ry="60" fill="#FFF"/>
  <circle cx="140" cy="190" r="8" fill="#000"/>
  <circle cx="160" cy="190" r="8" fill="#000"/>
  <ellipse cx="150" cy="225" rx="20" ry="10" fill="#000"/>
  <!-- 猪头的耳朵 -->
  <path d="M50,120 Q100,50 140,120" fill="#FFC107"/>
  <path d="M250,120 Q200,50 160,120" fill="#FFC107"/>
  <!-- 猪头的眼睛 -->
  <ellipse cx="110" cy="150" rx="20" ry="30" fill="#FFF"/>
  <ellipse cx="190" cy="150" rx="20" ry="30" fill="#FFF"/>
  <circle cx="110" cy="150" r="8" fill="#000"/>
  <circle cx="190" cy="150" r="8" fill="#000"/>
  <!-- 猪头的嘴巴 -->
  <path d="M120,230 Q150,260 180,230" fill="none" stroke="#000" stroke-width="8"/>
  <path d="M130,230 Q150,240 170,230" fill="none" stroke="#000" stroke-width="8"/>
  <path d="M150,230 Q150,250 150,270" fill="none" stroke="#000" stroke-width="8"/>
</svg>
